<svg xmlns="http://www.w3.org/2000/svg" viewBox="0 0 64 64" role="img" aria-label="StreaMonitor favicon">
  <defs>
    <linearGradient id="g" x1="0" y1="0" x2="1" y2="1">
      <stop offset="0%" stop-color="#06b6d4"/>
      <stop offset="100%" stop-color="#7c3aed"/>
    </linearGradient>
  </defs>
  <rect x="2" y="2" width="60" height="60" rx="16" fill="url(#g)"/>
  <path d="M44 19c-3-4-8-7-14-7-8 0-14 5-14 11 0 6 5 9 12 11 5 1 7 2 7 4 0 3-2 4-6 4-4 0-8-2-10-4l-5 5c4 4 9 6 15 6 9 0 15-5 15-12 0-6-4-9-11-11-6-1-8-2-8-4 0-2 2-3 5-3 3 0 6 1 8 4z" fill="#eef2ff"/>
</svg>
